<svg width="1200" height="630" viewBox="0 0 1200 630" fill="none" xmlns="http://www.w3.org/2000/svg">
  <rect width="1200" height="630" fill="#0F172A"/>
  <rect width="1200" height="630" fill="url(#bg)"/>
  <circle cx="1008" cy="122" r="132" fill="#2DD4BF" fill-opacity="0.12"/>
  <circle cx="190" cy="534" r="170" fill="#FFFFFF" fill-opacity="0.05"/>
  <rect x="132" y="116" width="936" height="398" rx="38" fill="#FFFFFF" fill-opacity="0.08" stroke="#FFFFFF" stroke-opacity="0.2"/>
  <path d="M600 200V434" stroke="#E2E8F0" stroke-width="14" stroke-linecap="round"/>
  <path d="M396 248H804" stroke="#E2E8F0" stroke-width="14" stroke-linecap="round"/>
  <path d="M600 248L460 286" stroke="#5EEAD4" stroke-width="10" stroke-linecap="round"/>
  <path d="M600 248L740 286" stroke="#5EEAD4" stroke-width="10" stroke-linecap="round"/>
  <path d="M460 286V372" stroke="#E2E8F0" stroke-width="8" stroke-linecap="round"/>
  <path d="M740 286V372" stroke="#E2E8F0" stroke-width="8" stroke-linecap="round"/>
  <path d="M384 372C408 414 512 414 536 372" stroke="#5EEAD4" stroke-width="10" stroke-linecap="round"/>
  <path d="M664 372C688 414 792 414 816 372" stroke="#5EEAD4" stroke-width="10" stroke-linecap="round"/>
  <path d="M516 434H684" stroke="#E2E8F0" stroke-width="16" stroke-linecap="round"/>
  <circle cx="600" cy="176" r="24" fill="#5EEAD4"/>
  <defs>
    <linearGradient id="bg" x1="64" y1="58" x2="1109" y2="580" gradientUnits="userSpaceOnUse">
      <stop stop-color="#0F766E"/>
      <stop offset="1" stop-color="#0B1120"/>
    </linearGradient>
  </defs>
</svg>
